<svg width="50" height="50" viewBox="0 0 50 50" fill="none" xmlns="http://www.w3.org/2000/svg">
<path d="M22.0314 7.37988H5.19141V19.6199H22.0314V7.37988Z" stroke="white" stroke-linecap="round" stroke-linejoin="round"/>
<path d="M20.88 41.79H1V1H27.28V8.89L35.57 8.73V16.66" stroke="white" stroke-linecap="round" stroke-linejoin="round"/>
<path d="M46.2394 38.6302V16.6902L38.6094 9.41016V16.7102H46.2394" stroke="white" stroke-linecap="round" stroke-linejoin="round"/>
<path d="M38.6097 47.6H7.67969V41.79" stroke="white" stroke-linecap="round" stroke-linejoin="round"/>
<path d="M27.7617 1L35.5717 8.73" stroke="white" stroke-linecap="round" stroke-linejoin="round"/>
<path d="M5.19141 25.8496H15.6714" stroke="white" stroke-linecap="round" stroke-linejoin="round"/>
<path d="M5.19141 30.5996H11.5514" stroke="white" stroke-linecap="round" stroke-linejoin="round"/>
<path d="M5.19141 35.5498H8.37141" stroke="white" stroke-linecap="round" stroke-linejoin="round"/>
<path d="M11.6006 15.4499L11.8006 15.1799C11.8806 15.0799 11.9906 15.0299 12.0906 15.1099C12.3966 15.4296 12.8095 15.6254 13.2506 15.6599C13.2506 14.9599 13.2506 14.2499 13.2506 13.5499C12.3306 13.1899 11.6606 12.7399 11.5906 11.7199C11.5806 11.6102 11.5806 11.4997 11.5906 11.3899C11.6279 10.977 11.8174 10.5926 12.1224 10.3116C12.4274 10.0307 12.826 9.87323 13.2406 9.86994V9.53994C13.2406 9.49389 13.2582 9.44956 13.2898 9.41607C13.3214 9.38259 13.3647 9.3625 13.4106 9.35994H13.7906C13.8167 9.35554 13.8433 9.35692 13.8688 9.36397C13.8942 9.37102 13.9178 9.38358 13.9378 9.40076C13.9578 9.41793 13.9739 9.4393 13.9847 9.46336C13.9956 9.48741 14.001 9.51355 14.0006 9.53994V9.83994C14.4125 9.84496 14.812 9.98162 15.1406 10.2299C15.1793 10.2723 15.2007 10.3276 15.2007 10.3849C15.2007 10.4423 15.1793 10.4976 15.1406 10.5399C14.9806 10.7799 14.8806 11.0199 14.6606 10.8699C14.4508 10.7304 14.2024 10.6604 13.9506 10.6699C13.9506 11.3399 13.9506 12.0099 13.9506 12.6699C14.9006 13.0799 15.6406 13.5799 15.6406 14.6699C15.6585 14.8969 15.6294 15.1252 15.5553 15.3405C15.4812 15.5558 15.3635 15.7535 15.2097 15.9214C15.0559 16.0893 14.8692 16.2237 14.6612 16.3164C14.4532 16.409 14.2283 16.4579 14.0006 16.4599V17.4599C14.0006 17.5699 13.7406 17.6299 13.6406 17.6299C13.5406 17.6299 13.2806 17.6299 13.2806 17.4599V16.4599C12.6774 16.4229 12.1084 16.1669 11.6806 15.7399C11.5806 15.6699 11.5006 15.5999 11.6006 15.4499ZM13.2506 10.6899C13.1482 10.6925 13.0473 10.7153 12.9536 10.7569C12.86 10.7985 12.7755 10.8582 12.7049 10.9325C12.6343 11.0068 12.5791 11.0942 12.5423 11.1899C12.5055 11.2855 12.488 11.3875 12.4906 11.4899C12.4866 11.7236 12.5586 11.9523 12.6956 12.1416C12.8326 12.331 13.0274 12.4707 13.2506 12.5399V10.6899ZM14.7006 14.8199C14.7147 14.59 14.6542 14.3617 14.528 14.1689C14.4019 13.9761 14.217 13.8292 14.0006 13.7499V15.6599C14.1019 15.6512 14.2004 15.6224 14.2906 15.5753C14.3807 15.5283 14.4606 15.4639 14.5256 15.3858C14.5907 15.3077 14.6397 15.2175 14.6697 15.1204C14.6998 15.0232 14.7103 14.9211 14.7006 14.8199Z" fill="white"/>
<path d="M30.6819 42.02C37.0387 42.02 42.1919 36.8668 42.1919 30.51C42.1919 24.1532 37.0387 19 30.6819 19C24.3251 19 19.1719 24.1532 19.1719 30.51C19.1719 36.8668 24.3251 42.02 30.6819 42.02Z" stroke="white" stroke-linecap="round" stroke-linejoin="round"/>
<path d="M41.3581 43.83L45.4881 47.94C45.8747 48.3169 46.3932 48.5278 46.9331 48.5278C47.473 48.5278 47.9915 48.3169 48.3781 47.94C48.5764 47.753 48.7343 47.5275 48.8423 47.2773C48.9502 47.0271 49.0059 46.7575 49.0059 46.485C49.0059 46.2125 48.9502 45.9429 48.8423 45.6927C48.7343 45.4425 48.5764 45.217 48.3781 45.03L44.2881 40.89C43.9155 40.5146 43.4128 40.297 42.8841 40.2821C42.3554 40.2672 41.8413 40.4562 41.4481 40.81C41.2331 40.9957 41.0591 41.2241 40.9371 41.4806C40.815 41.7372 40.7477 42.0163 40.7392 42.3002C40.7307 42.5842 40.7814 42.8668 40.8879 43.1301C40.9945 43.3935 41.1546 43.6318 41.3581 43.83Z" stroke="white" stroke-linecap="round" stroke-linejoin="round"/>
<path d="M38.5781 39.2695L40.8181 41.6495" stroke="white" stroke-linecap="round" stroke-linejoin="round"/>
<path d="M39.6992 38.0195L41.9792 40.4295" stroke="white" stroke-linecap="round" stroke-linejoin="round"/>
<path d="M30.6809 38.98C35.3588 38.98 39.1509 35.1879 39.1509 30.51C39.1509 25.8322 35.3588 22.04 30.6809 22.04C26.0031 22.04 22.2109 25.8322 22.2109 30.51C22.2109 35.1879 26.0031 38.98 30.6809 38.98Z" stroke="white" stroke-linecap="round" stroke-linejoin="round"/>
</svg>
