<svg width="57" height="56" viewBox="0 0 57 56" fill="none" xmlns="http://www.w3.org/2000/svg">
<path d="M48.4041 16.3517C48.3481 16.2957 48.3481 16.2957 48.3481 16.2397C45.5481 11.7597 48.2361 7.72773 48.3481 7.55973C48.4601 7.39173 48.4601 7.16773 48.4041 6.99973C48.2921 6.83173 48.1241 6.71973 47.9001 6.71973H16.3721C13.5161 6.71973 11.1641 9.07173 11.1641 11.9277V43.9597C11.1641 46.8157 13.5161 49.1677 16.3721 49.1677H47.9001C48.2361 49.1677 48.4601 48.9437 48.4601 48.6077V16.5757C48.4601 16.5197 48.4601 16.4077 48.4041 16.3517ZM16.3721 7.78373H46.9481C46.2201 9.23973 45.1561 12.4317 46.9481 15.9597H16.3721C14.1321 15.9597 12.2841 14.1117 12.2841 11.8717C12.2841 9.63173 14.1321 7.78373 16.3721 7.78373ZM26.5081 27.4957H26.4521C26.3961 27.4957 26.3961 27.4397 26.3401 27.4397C26.2841 27.4397 26.2841 27.4397 26.2281 27.4397C26.1721 27.4397 26.1721 27.4397 26.1161 27.4397C26.0601 27.4397 26.0601 27.4397 26.0041 27.4957H25.9481L23.1481 29.2317V17.1357H29.3081V29.2317L26.5081 27.4957ZM12.2841 43.9037V15.1197C13.0681 16.1277 14.1881 16.7997 15.4761 17.0237V47.8797C13.6841 47.5437 12.2841 45.8637 12.2841 43.9037ZM16.6521 47.9917V17.1357H22.0281V30.2397C22.0281 30.4637 22.1401 30.6317 22.3081 30.7437C22.4201 30.7997 22.4761 30.7997 22.5881 30.7997C22.7001 30.7997 22.8121 30.7437 22.8681 30.6877L26.2281 28.6157L29.5881 30.6877C29.7001 30.7437 29.7561 30.7997 29.8681 30.7997C29.9801 30.7997 30.0361 30.7997 30.1481 30.7437C30.3161 30.6317 30.4281 30.4637 30.4281 30.2397V17.1357H47.3401V48.0477H16.6521V47.9917Z" fill="white"/>
<path d="M31.2123 11.2557H42.8603C43.1963 11.2557 43.4203 11.0317 43.4203 10.6957C43.4203 10.3597 43.1963 10.1357 42.8603 10.1357H31.2123C30.8763 10.1357 30.6523 10.3597 30.6523 10.6957C30.6523 11.0317 30.8763 11.2557 31.2123 11.2557Z" fill="white"/>
<path d="M42.2983 12.5439H21.4663C21.1303 12.5439 20.9062 12.7679 20.9062 13.1039C20.9062 13.4399 21.1303 13.6639 21.4663 13.6639H42.2983C42.6343 13.6639 42.8583 13.4399 42.8583 13.1039C42.8583 12.7679 42.5783 12.5439 42.2983 12.5439Z" fill="white"/>
<path d="M18.0522 11.2557H27.1802C27.5162 11.2557 27.7402 11.0317 27.7402 10.6957C27.7402 10.3597 27.5162 10.1357 27.1802 10.1357H18.0522C17.7162 10.1357 17.4922 10.3597 17.4922 10.6957C17.4922 11.0317 17.7162 11.2557 18.0522 11.2557Z" fill="white"/>
</svg>
