<svg width="33" height="50" viewBox="0 0 33 50" fill="none" xmlns="http://www.w3.org/2000/svg">
<path d="M21.0156 32.6225V27.8625C21.0156 27.5268 21.0819 27.1944 21.2107 26.8844C21.3395 26.5743 21.5282 26.2928 21.766 26.0559C22.0039 25.8189 22.2862 25.6313 22.5967 25.5037C22.9072 25.3762 23.2399 25.3112 23.5756 25.3125C23.9105 25.3125 24.2421 25.3785 24.5515 25.5066C24.8608 25.6348 25.142 25.8226 25.3787 26.0594C25.6155 26.2962 25.8034 26.5773 25.9315 26.8867C26.0597 27.1961 26.1256 27.5276 26.1256 27.8625V34.4725" stroke="white" stroke-linecap="round" stroke-linejoin="round"/>
<path d="M15.9063 31.0223V26.2123C15.9062 25.5351 16.1746 24.8855 16.6525 24.4057C17.1304 23.9259 17.779 23.655 18.4562 23.6523C19.1352 23.6523 19.7864 23.9221 20.2664 24.4022C20.7465 24.8822 21.0162 25.5334 21.0162 26.2123V32.8223" stroke="white" stroke-linecap="round" stroke-linejoin="round"/>
<path d="M10.7969 37.382V16.322C10.7967 15.6517 11.0596 15.008 11.5289 14.5293C11.9983 14.0506 12.6366 13.7751 13.3069 13.762C13.6464 13.7567 13.9836 13.819 14.2988 13.9453C14.6141 14.0716 14.901 14.2593 15.143 14.4975C15.385 14.7358 15.5771 15.0198 15.7083 15.333C15.8394 15.6463 15.9069 15.9825 15.9069 16.322V30.612" stroke="white" stroke-linecap="round" stroke-linejoin="round"/>
<path d="M10.7975 37.782V31.222C10.7949 30.5448 10.524 29.8962 10.0442 29.4183C9.56436 28.9403 8.91473 28.672 8.2375 28.672C7.5612 28.672 6.9126 28.9407 6.43438 29.4189C5.95616 29.8971 5.6875 30.5457 5.6875 31.222V42.412C5.6875 43.2809 5.8588 44.1412 6.19161 44.9438C6.52442 45.7465 7.0122 46.4756 7.62706 47.0895C8.24191 47.7034 8.97178 48.1901 9.77489 48.5217C10.578 48.8533 11.4386 49.0233 12.3075 49.022H24.0175C26.0278 49.022 27.9558 48.2234 29.3774 46.8019C30.7989 45.3803 31.5975 43.4523 31.5975 41.442V29.102C31.5975 28.7658 31.5313 28.4329 31.4026 28.1223C31.274 27.8117 31.0854 27.5295 30.8477 27.2918C30.61 27.0541 30.3278 26.8655 30.0172 26.7369C29.7066 26.6082 29.3737 26.542 29.0375 26.542H28.6875C28.3513 26.542 28.0184 26.6082 27.7078 26.7369C27.3972 26.8655 27.115 27.0541 26.8773 27.2918C26.6396 27.5295 26.451 27.8117 26.3224 28.1223C26.1937 28.4329 26.1275 28.7658 26.1275 29.102V34.472" stroke="white" stroke-linecap="round" stroke-linejoin="round"/>
<path d="M10.7968 20.452C9.09641 19.8552 7.66006 18.6795 6.73904 17.1306C5.81801 15.5817 5.47098 13.7583 5.75867 11.9793C6.04636 10.2004 6.95044 8.57926 8.31272 7.39961C9.675 6.21996 11.4087 5.55691 13.2105 5.52649C15.0123 5.49606 16.7674 6.1002 18.1687 7.23318C19.5701 8.36617 20.5284 9.95585 20.876 11.7241C21.2235 13.4923 20.9383 15.3264 20.0701 16.9055C19.2019 18.4846 17.806 19.7082 16.1268 20.362" stroke="white" stroke-linecap="round" stroke-linejoin="round"/>
<path d="M6.30416 23.4625C4.20176 22.0047 2.6049 19.929 1.73487 17.5231C0.864844 15.1172 0.764746 12.5002 1.44845 10.0349C2.13215 7.5696 3.56579 5.378 5.55069 3.76386C7.53558 2.14972 9.97343 1.19297 12.5264 1.02623C15.0793 0.859472 17.6209 1.49098 19.7989 2.83321C21.9769 4.17545 23.6834 6.16194 24.682 8.51738C25.6806 10.8728 25.9217 13.4806 25.372 15.9792C24.8224 18.4778 23.5091 20.7436 21.6142 22.4625" stroke="white" stroke-linecap="round" stroke-linejoin="round"/>
</svg>
