<svg width="57" height="56" viewBox="0 0 57 56" fill="none" xmlns="http://www.w3.org/2000/svg">
<path d="M6.16938 24.4222H6.41468L7.12203 44.6528C7.12395 44.7137 7.13953 44.7727 7.16113 44.8296C7.16609 44.8428 7.17087 44.8552 7.17679 44.8678C7.18229 44.8796 7.18516 44.8924 7.19148 44.9038L10.0664 50.1103C10.1648 50.2889 10.3524 50.3996 10.5564 50.3996C10.7604 50.3996 10.948 50.2889 11.0464 50.1103L13.9219 44.9038C13.9282 44.8924 13.9311 44.8797 13.9365 44.8679C13.9425 44.8552 13.9473 44.8427 13.9523 44.8295C13.9738 44.7726 13.9894 44.7137 13.9913 44.6528L14.6982 24.4222H14.944C15.2535 24.4222 15.504 24.1715 15.504 23.8622V11.9576H17.9638V23.8622C17.9638 24.1715 18.2143 24.4222 18.5238 24.4222C18.8334 24.4222 19.0838 24.1715 19.0838 23.8622V11.3976C19.0838 11.0883 18.8334 10.8376 18.5238 10.8376H15.504V10.5469C15.504 7.81883 13.2848 5.59961 10.5564 5.59961C7.82859 5.59961 5.60938 7.81883 5.60938 10.5469V23.8622C5.60938 24.1715 5.85984 24.4222 6.16938 24.4222ZM10.5564 48.6811L8.63048 45.1931H12.4828L10.5564 48.6811ZM12.891 44.0731H8.22234L7.53496 24.4222H13.5779L12.891 44.0731ZM14.384 23.3022H6.72938V11.9576H14.384V23.3022ZM10.5564 6.71961C12.6668 6.71961 14.384 8.43652 14.384 10.5469V10.8376H6.72938V10.5469C6.72938 8.43652 8.44602 6.71961 10.5564 6.71961Z" fill="white"/>
<path d="M49.8493 9.13496H47.326V8.57742C47.326 6.93379 45.9889 5.59668 44.345 5.59668C42.7011 5.59668 41.364 6.93379 41.364 8.57742V9.13496H38.9424V8.57742C38.9424 6.93379 37.6053 5.59668 35.9614 5.59668C34.3175 5.59668 32.9804 6.93379 32.9804 8.57742V9.13496H30.5588V8.57742C30.5588 6.93379 29.2217 5.59668 27.5778 5.59668C25.9339 5.59668 24.5968 6.93379 24.5968 8.57742V9.13496H21.5873C21.2778 9.13496 21.0273 9.3857 21.0273 9.69496V49.8402C21.0273 50.1495 21.2778 50.4002 21.5873 50.4002H49.8493C50.1588 50.4002 50.4093 50.1495 50.4093 49.8402V9.69496C50.4093 9.3857 50.1588 9.13496 49.8493 9.13496ZM42.484 8.57742C42.484 7.55148 43.3191 6.71668 44.345 6.71668C45.3709 6.71668 46.206 7.55148 46.206 8.57742V9.13496H42.484V8.57742ZM34.1004 8.57742C34.1004 7.55148 34.9355 6.71668 35.9614 6.71668C36.9873 6.71668 37.8224 7.55148 37.8224 8.57742V9.13496H34.1004V8.57742ZM25.7168 8.57742C25.7168 7.55148 26.5519 6.71668 27.5778 6.71668C28.6038 6.71668 29.4388 7.55148 29.4388 8.57742V9.13496H25.7168V8.57742ZM49.2893 49.2802H22.1473V10.255H24.5968V11.4255C24.5968 13.0692 25.9339 14.4066 27.5778 14.4066C27.8873 14.4066 28.1378 14.1558 28.1378 13.8466C28.1378 13.5373 27.8873 13.2866 27.5778 13.2866C26.5519 13.2866 25.7168 12.4518 25.7168 11.4255V10.255H32.9804V11.4255C32.9804 13.0692 34.3175 14.4066 35.9614 14.4066C36.2709 14.4066 36.5214 14.1558 36.5214 13.8466C36.5214 13.5373 36.2709 13.2866 35.9614 13.2866C34.9355 13.2866 34.1004 12.4518 34.1004 11.4255V10.255H41.364V11.4255C41.364 13.0692 42.7011 14.4066 44.345 14.4066C44.6545 14.4066 44.905 14.1558 44.905 13.8466C44.905 13.5373 44.6545 13.2866 44.345 13.2866C43.3191 13.2866 42.484 12.4518 42.484 11.4255V10.255H49.2893V49.2802Z" fill="white"/>
<path d="M43.4273 40.3555H28.0092C27.6997 40.3555 27.4492 40.6062 27.4492 40.9155C27.4492 41.2247 27.6997 41.4755 28.0092 41.4755H43.4273C43.7368 41.4755 43.9873 41.2247 43.9873 40.9155C43.9873 40.6062 43.7368 40.3555 43.4273 40.3555Z" fill="white"/>
<path d="M43.4273 33.3379H28.0092C27.6997 33.3379 27.4492 33.5886 27.4492 33.8979C27.4492 34.2071 27.6997 34.4579 28.0092 34.4579H43.4273C43.7368 34.4579 43.9873 34.2071 43.9873 33.8979C43.9873 33.5886 43.7368 33.3379 43.4273 33.3379Z" fill="white"/>
<path d="M43.4273 26.3203H28.0092C27.6997 26.3203 27.4492 26.5711 27.4492 26.8803C27.4492 27.1896 27.6997 27.4403 28.0092 27.4403H43.4273C43.7368 27.4403 43.9873 27.1896 43.9873 26.8803C43.9873 26.5711 43.7368 26.3203 43.4273 26.3203Z" fill="white"/>
<path d="M43.4273 19.3027H28.0092C27.6997 19.3027 27.4492 19.5535 27.4492 19.8627C27.4492 20.172 27.6997 20.4227 28.0092 20.4227H43.4273C43.7368 20.4227 43.9873 20.172 43.9873 19.8627C43.9873 19.5535 43.7368 19.3027 43.4273 19.3027Z" fill="white"/>
</svg>
