<svg width="50" height="50" viewBox="0 0 50 50" fill="none" xmlns="http://www.w3.org/2000/svg">
<path d="M5.10938 6.15039H8.99936" stroke="black" stroke-linecap="round" stroke-linejoin="round"/>
<path d="M37.6183 49.0002C43.9033 49.0002 48.9983 43.9052 48.9983 37.6202C48.9983 31.3352 43.9033 26.2402 37.6183 26.2402C31.3333 26.2402 26.2383 31.3352 26.2383 37.6202C26.2383 43.9052 31.3333 49.0002 37.6183 49.0002Z" stroke="black" stroke-linecap="round" stroke-linejoin="round"/>
<path d="M32.0586 41.0703C31.4093 40.0364 31.0629 38.8412 31.0586 37.6203C31.0586 36.7602 31.228 35.9084 31.5572 35.1137C31.8864 34.3191 32.3688 33.597 32.9771 32.9888C33.5853 32.3805 34.3073 31.8981 35.102 31.5689C35.8967 31.2397 36.7484 31.0703 37.6086 31.0703C38.8262 31.0754 40.018 31.4218 41.0486 32.0703" stroke="black" stroke-linecap="round" stroke-linejoin="round"/>
<path d="M44.0511 36.4395C44.1238 36.8286 44.1606 37.2236 44.1611 37.6195C44.1611 38.5856 43.9468 39.5397 43.5335 40.413C43.1202 41.2862 42.5183 42.0569 41.7711 42.6695C40.6028 43.633 39.1355 44.1598 37.6211 44.1595" stroke="black" stroke-linecap="round" stroke-linejoin="round"/>
<path d="M40.4094 29.5303L42.0194 32.4003L38.8594 33.5203" stroke="black" stroke-linecap="round" stroke-linejoin="round"/>
<path d="M39.1417 46.1704L36.5117 44.1904L38.9517 41.9004" stroke="black" stroke-linecap="round" stroke-linejoin="round"/>
<path d="M32.84 1H5.99C3.2341 1 1 3.2341 1 5.99V6C1 8.7559 3.2341 10.99 5.99 10.99H32.84C35.5959 10.99 37.83 8.7559 37.83 6V5.99C37.83 3.2341 35.5959 1 32.84 1Z" stroke="black" stroke-linecap="round" stroke-linejoin="round"/>
<path d="M32.84 13.6201H5.99C3.2341 13.6201 1 15.8542 1 18.6101V18.6201C1 21.376 3.2341 23.6101 5.99 23.6101H32.84C35.5959 23.6101 37.83 21.376 37.83 18.6201V18.6101C37.83 15.8542 35.5959 13.6201 32.84 13.6201Z" stroke="black" stroke-linecap="round" stroke-linejoin="round"/>
<path d="M26.32 36.2197H6C4.67392 36.2197 3.40216 35.6929 2.46448 34.7553C1.5268 33.8176 1 32.5458 1 31.2197C1 29.8936 1.5268 28.6219 2.46448 27.6842C3.40216 26.7465 4.67392 26.2197 6 26.2197H32.84C33.4908 26.2238 34.1352 26.3492 34.74 26.5897" stroke="black" stroke-linecap="round" stroke-linejoin="round"/>
<path d="M32.83 48.8398H6C4.67392 48.8398 3.40216 48.3131 2.46448 47.3754C1.5268 46.4377 1 45.1659 1 43.8398C1 42.5138 1.5268 41.242 2.46448 40.3043C3.40216 39.3666 4.67392 38.8398 6 38.8398H26.31" stroke="black" stroke-linecap="round" stroke-linejoin="round"/>
<path d="M5.10938 18.6104H8.99936" stroke="black" stroke-linecap="round" stroke-linejoin="round"/>
<path d="M5.10938 31.0703H8.99936" stroke="black" stroke-linecap="round" stroke-linejoin="round"/>
<path d="M5.10938 43.54H8.99936" stroke="black" stroke-linecap="round" stroke-linejoin="round"/>
</svg>
