<?xml version="1.0" encoding="utf-8"?>
<!-- Generator: Adobe Illustrator 25.2.0, SVG Export Plug-In . SVG Version: 6.00 Build 0)  -->
<svg version="1.1" id="Layer_1" xmlns="http://www.w3.org/2000/svg" xmlns:xlink="http://www.w3.org/1999/xlink" x="0px" y="0px"
	 viewBox="0 0 700 700" style="enable-background:new 0 0 700 700;" xml:space="preserve">
<style type="text/css">
	.st0{fill:#FFFFFF;}
</style>
<path class="st0" d="M332.7,311.2c-13.8,28.7-15.6,60.9-5.1,90.9c10.5,30,32.1,54.1,60.7,67.9c16.4,7.9,33.9,11.8,51.5,11.8
	c13.2,0,26.5-2.2,39.4-6.7c30-10.5,54.1-32.1,67.9-60.7c13.8-28.7,15.6-61,5.1-91c-10.5-30-32.1-54.1-60.7-67.9
	c-28.7-13.8-60.9-15.6-90.9-5.1C370.6,261,346.5,282.6,332.7,311.2L332.7,311.2z M440.1,260.8c14.8,0,29.9,3.2,44.1,10.1
	c50.7,24.4,72.1,85.5,47.7,136.2c-11.8,24.6-32.5,43-58.2,52c-25.7,9-53.4,7.5-78-4.4c-24.6-11.8-43-32.5-52-58.2
	c-9-25.7-7.5-53.4,4.4-78C365.6,282.1,402.1,260.8,440.1,260.8L440.1,260.8z"/>
<path class="st0" d="M387.1,391.6c0.7,2.1,2.3,3.9,4.3,4.8c1.2,0.6,2.4,0.8,3.7,0.8c0.9,0,1.9-0.2,2.8-0.5l112.4-39.4
	c4.4-1.6,6.8-6.4,5.2-10.8c-1.5-4.4-6.4-6.7-10.8-5.2L400.3,378l-14.5-41.4c-1.6-4.4-6.4-6.7-10.8-5.2c-4.4,1.6-6.8,6.4-5.2,10.8
	L387.1,391.6z"/>
<path class="st0" d="M204.5,684.2c1.3,3.4,4.5,5.5,8,5.5c1,0,2-0.2,3-0.5L412.9,615l107.2,38.4c0.9,0.3,1.9,0.5,2.9,0.5
	c1.2,0,2.5-0.3,3.6-0.8c2-1,3.6-2.7,4.4-4.8L691.5,200c1.6-4.4-0.7-9.3-5.1-10.9l-239.8-85.9l-32.9-87.6c-0.1-0.4-0.4-0.6-0.6-1
	c-0.3-0.5-0.5-1-0.9-1.5c-0.3-0.4-0.7-0.7-1.1-1c-0.4-0.4-0.9-0.7-1.4-1c-0.1-0.1-0.2-0.2-0.4-0.3c-0.4-0.2-0.8-0.2-1.2-0.3
	c-0.4-0.1-0.7-0.3-1.1-0.4c-0.2,0-0.3,0-0.5,0c-0.6-0.1-1.1,0-1.7,0.1c-0.5,0.1-1.1,0.1-1.6,0.3c-0.1,0-0.3,0-0.4,0.1L15.3,156.3
	c-0.1,0.1-0.2,0.2-0.4,0.2c-0.5,0.2-0.9,0.5-1.4,0.8c-0.5,0.3-1,0.6-1.4,1.1c-0.1,0.1-0.3,0.2-0.4,0.3c-0.3,0.3-0.4,0.7-0.6,1
	c-0.2,0.3-0.5,0.6-0.7,1c-0.1,0.2-0.1,0.3-0.1,0.5c-0.2,0.5-0.3,1.1-0.4,1.6c-0.1,0.5-0.2,1-0.2,1.6c0,0.6,0.1,1.1,0.3,1.6
	c0.1,0.4,0.1,0.8,0.2,1.2L204.5,684.2z M217.4,670.3L37.9,192.4l43.1,37c1.6,1.4,3.5,2.1,5.5,2.1c1,0,2-0.2,3-0.5l243.4-91.5
	l-139,388.1c-1.6,4.4,0.7,9.3,5.1,10.9l189.1,67.7L217.4,670.3z M388,82.3l-22.7-8.1c-2.1-0.8-4.4-0.6-6.5,0.3c-2,1-3.6,2.7-4.4,4.8
	l-14,39.2L88.2,213.2l-53.6-46L395.3,31.7L388,82.3z M517.8,634.6l-305-109.3L367.6,93l305,109.3L517.8,634.6z M404.4,88.2l5.1-35.4
	l16.2,43L404.4,88.2z"/>
</svg>
