<svg width="50" height="49" viewBox="0 0 50 49" fill="none" xmlns="http://www.w3.org/2000/svg">
<path d="M41.7252 38.3799H8.28516L10.5452 33.3799V19.5999C10.5452 15.7083 12.0904 11.9759 14.8413 9.22313C17.5922 6.47038 21.3235 4.92257 25.2152 4.91992C27.143 4.91992 29.0519 5.29963 30.833 6.03737C32.614 6.77511 34.2323 7.85643 35.5955 9.21959C36.9586 10.5828 38.04 12.2011 38.7777 13.9821C39.5154 15.7632 39.8952 17.6721 39.8952 19.5999V33.5999L41.7252 38.3799Z" stroke="black" stroke-linecap="round" stroke-linejoin="round"/>
<path d="M42.4734 38.3799H7.52344C5.86658 38.3799 4.52344 39.723 4.52344 41.3799C4.52344 43.0367 5.86658 44.3799 7.52344 44.3799H42.4734C44.1303 44.3799 45.4734 43.0367 45.4734 41.3799C45.4734 39.723 44.1303 38.3799 42.4734 38.3799Z" stroke="black" stroke-linecap="round" stroke-linejoin="round"/>
<path d="M22.0742 5.00055C22.0729 4.61493 22.1477 4.23285 22.2944 3.87621C22.4411 3.51957 22.6567 3.19539 22.9289 2.92226C23.2011 2.64912 23.5245 2.4324 23.8807 2.28453C24.2368 2.13666 24.6186 2.06054 25.0042 2.06055C25.3899 2.06054 25.7717 2.13666 26.1278 2.28453C26.484 2.4324 26.8074 2.64912 27.0796 2.92226C27.3518 3.19539 27.5674 3.51957 27.7141 3.87621C27.8607 4.23285 27.9356 4.61493 27.9342 5.00055" stroke="black" stroke-linecap="round" stroke-linejoin="round"/>
<path d="M30.0039 44.4601C29.7302 45.5695 29.0847 46.5516 28.1749 47.243C27.2652 47.9345 26.1461 48.2934 25.0039 48.2601C23.8571 48.2581 22.7435 47.8748 21.8383 47.1706C20.9332 46.4664 20.2878 45.4812 20.0039 44.3701" stroke="black" stroke-linecap="round" stroke-linejoin="round"/>
<path d="M39.375 5.21973C41.3642 6.63181 42.8276 8.66508 43.535 10.9997" stroke="black" stroke-linecap="round" stroke-linejoin="round"/>
<path d="M40.2852 1C46.7352 1.89 49.1452 8.33 48.9952 12.13" stroke="black" stroke-linecap="round" stroke-linejoin="round"/>
<path d="M10.5055 5.21973C8.51998 6.63341 7.06024 8.6665 6.35547 10.9997" stroke="black" stroke-linecap="round" stroke-linejoin="round"/>
<path d="M9.72574 1C3.27574 1.89 0.865738 8.33 1.00573 12.13" stroke="black" stroke-linecap="round" stroke-linejoin="round"/>
</svg>
