<svg width="50" height="50" viewBox="0 0 50 50" fill="none" xmlns="http://www.w3.org/2000/svg">
<path d="M21.49 48.6099C32.8063 48.6099 41.98 39.4362 41.98 28.1199C41.98 16.8036 32.8063 7.62988 21.49 7.62988C10.1737 7.62988 1 16.8036 1 28.1199C1 39.4362 10.1737 48.6099 21.49 48.6099Z" stroke="black" stroke-linecap="round" stroke-linejoin="round"/>
<path d="M21.49 42.6099C29.4926 42.6099 35.98 36.1225 35.98 28.1199C35.98 20.1173 29.4926 13.6299 21.49 13.6299C13.4874 13.6299 7 20.1173 7 28.1199C7 36.1225 13.4874 42.6099 21.49 42.6099Z" stroke="black" stroke-linecap="round" stroke-linejoin="round"/>
<path d="M21.4899 36.0207C25.8529 36.0207 29.3898 32.4838 29.3898 28.1207C29.3898 23.7577 25.8529 20.2207 21.4899 20.2207C17.1268 20.2207 13.5898 23.7577 13.5898 28.1207C13.5898 32.4838 17.1268 36.0207 21.4899 36.0207Z" stroke="black" stroke-linecap="round" stroke-linejoin="round"/>
<path d="M21.4883 28.1205L42.1883 8.06055" stroke="black" stroke-linecap="round" stroke-linejoin="round"/>
<path d="M37.9089 5.37988L37.6289 12.4299L44.4389 12.1399" stroke="black" stroke-linecap="round" stroke-linejoin="round"/>
<path d="M42.4714 1L42.1914 8.06L49.0014 7.77" stroke="black" stroke-linecap="round" stroke-linejoin="round"/>
</svg>
