<svg width="47" height="45" viewBox="0 0 47 45" fill="none" xmlns="http://www.w3.org/2000/svg">
<path d="M7.14 32.5005H1C1 26.4721 3.39475 20.6907 7.65746 16.428C11.9202 12.1653 17.7016 9.77051 23.73 9.77051C29.7584 9.77051 35.5398 12.1653 39.8025 16.428C44.0652 20.6907 46.46 26.4721 46.46 32.5005H40.73" stroke="black" stroke-linecap="round" stroke-linejoin="round"/>
<path d="M22.4516 34.9705C24.5779 34.9705 26.3016 33.2468 26.3016 31.1205C26.3016 28.9942 24.5779 27.2705 22.4516 27.2705C20.3253 27.2705 18.6016 28.9942 18.6016 31.1205C18.6016 33.2468 20.3253 34.9705 22.4516 34.9705Z" stroke="black" stroke-linecap="round" stroke-linejoin="round"/>
<path d="M22.4492 27.2797L32.1392 19.3997C32.2768 19.2855 32.4516 19.2258 32.6303 19.2319C32.8091 19.238 32.9793 19.3095 33.1088 19.4328C33.2383 19.5562 33.3181 19.7227 33.3329 19.901C33.3477 20.0792 33.2966 20.2567 33.1892 20.3997L26.2992 29.7997" stroke="black" stroke-linecap="round" stroke-linejoin="round"/>
<path d="M4.5 21.46L7.36 23.43" stroke="black" stroke-linecap="round" stroke-linejoin="round"/>
<path d="M11.6406 13.5596L13.6006 16.7796" stroke="black" stroke-linecap="round" stroke-linejoin="round"/>
<path d="M23.7305 9.77051V14.1105" stroke="black" stroke-linecap="round" stroke-linejoin="round"/>
<path d="M42.9616 21.46L40.1016 23.43" stroke="black" stroke-linecap="round" stroke-linejoin="round"/>
<path d="M35.8194 13.5596L33.8594 16.7796" stroke="black" stroke-linecap="round" stroke-linejoin="round"/>
<path d="M1.94922 38.0801H41.5292" stroke="black" stroke-linecap="round" stroke-linejoin="round"/>
<path d="M1.94922 43.7402H19.5692" stroke="black" stroke-linecap="round" stroke-linejoin="round"/>
<path d="M1.14062 1H18.7606" stroke="black" stroke-linecap="round" stroke-linejoin="round"/>
<path d="M1.14062 6.80957H41.5306" stroke="black" stroke-linecap="round" stroke-linejoin="round"/>
</svg>
