<svg width="629" height="623" viewBox="0 0 629 623" fill="none" xmlns="http://www.w3.org/2000/svg">
<g clip-path="url(#clip0_1_54)">
<path d="M155.255 568.469L156.535 601.043L156.535 601.044C156.75 606.549 155.147 611.933 152.077 616.01C149.007 620.088 144.722 622.525 140.164 622.786L139.606 622.818L137.511 569.486L155.255 568.469Z" fill="#2F2E41"/>
<path d="M538.658 513.422C525.814 543.698 509.523 572.978 488.911 599.479C488.453 600.078 487.991 600.661 487.524 601.254L438.688 573.328C438.987 572.728 439.314 572.055 439.667 571.32C460.645 527.964 587.28 263.492 583.279 203.593C583.745 208.533 598.755 371.911 538.658 513.422Z" fill="#E6E6E6"/>
<path d="M498.333 604.867C497.649 605.336 496.948 605.796 496.243 606.24L459.607 585.29C460.119 584.851 460.716 584.332 461.401 583.748C472.625 574.014 506.001 544.81 538.658 513.422C573.753 479.693 608.026 443.452 613.116 426.153C612.082 430.12 579.96 550.701 498.333 604.867Z" fill="#E6E6E6"/>
<path d="M60.9422 621.517C92.168 621.517 117.481 590.941 117.481 553.224C117.481 515.506 92.168 484.93 60.9422 484.93C29.7163 484.93 4.40283 515.506 4.40283 553.224C4.40283 590.941 29.7163 621.517 60.9422 621.517Z" fill="#6C63FF"/>
<path d="M83.5899 524.565H38.2944C36.2929 524.567 34.374 525.529 32.9587 527.239C31.5435 528.948 30.7474 531.266 30.7451 533.683V572.764C30.7474 575.181 31.5434 577.499 32.9587 579.209C34.374 580.918 36.2929 581.88 38.2944 581.883H83.59C85.5915 581.88 87.5104 580.918 88.9257 579.209C90.3409 577.499 91.137 575.181 91.1393 572.764V533.683C91.137 531.266 90.3409 528.948 88.9256 527.239C87.5103 525.529 85.5914 524.567 83.5899 524.565V524.565ZM83.5899 529.775C83.8603 529.777 84.1296 529.819 84.3912 529.902L60.9474 552.491L37.6407 529.856C37.8557 529.802 38.0747 529.775 38.2943 529.775H83.5899ZM83.5899 576.672H38.2944C37.4366 576.671 36.6142 576.259 36.0077 575.526C35.4011 574.793 35.06 573.8 35.059 572.764V534.034L59.5907 557.859C59.9727 558.23 60.4479 558.433 60.9381 558.434C61.4282 558.435 61.9041 558.235 62.2872 557.866L86.8254 534.222V572.764C86.8244 573.8 86.4832 574.793 85.8767 575.526C85.2701 576.259 84.4477 576.671 83.5899 576.672Z" fill="white"/>
<path d="M279.14 454.625L291.791 454.751C293.071 454.763 294.338 454.439 295.504 453.799C296.669 453.16 297.705 452.221 298.54 451.048C299.374 449.875 299.986 448.497 300.334 447.009C300.682 445.52 300.757 443.959 300.554 442.432V442.432C300.335 440.789 299.8 439.231 298.992 437.883C298.184 436.535 297.125 435.435 295.901 434.672C294.676 433.909 293.321 433.503 291.943 433.488C290.566 433.473 289.204 433.849 287.969 434.586L276.039 441.696L235.234 452.688L217.752 431.099L207.711 451.076L231.301 473.09L279.14 454.625Z" fill="#FFB8B8"/>
<path d="M276.77 612.502L261.865 615.964C251.684 577.2 240.653 540.49 240.654 512.098C226.246 531.467 208.38 542.548 187.341 546.028L189.634 503.096L206.831 492.017L233.153 477.343C235.457 476.058 237.943 475.315 240.478 475.154V475.154C245.406 474.841 250.255 476.741 254.093 480.487C257.93 484.234 260.485 489.564 261.265 495.449L276.77 612.502Z" fill="#2F2E41"/>
<path d="M205.398 540.834L199.458 546.288C196.903 548.633 193.886 550.13 190.704 550.631C187.523 551.132 184.288 550.619 181.321 549.144C164.306 533.738 152.218 538.283 141.262 561.536C128.121 543.621 124.879 517.747 136.607 490.978L201.672 492.709L214.857 487.862L205.398 540.834Z" fill="#2F2E41"/>
<path d="M183.729 621.062C180.001 622.447 175.988 622.204 172.393 620.375C168.798 618.545 165.851 615.246 164.068 611.056C158.221 604.835 153.287 595.928 149.008 585.097C145.937 577.151 143.301 568.972 141.115 560.611C138.154 549.564 143.106 537.496 152.321 534.191C152.595 534.093 152.872 534 153.153 533.913C165.455 530.098 178.087 538.669 182.293 553.144L194.52 595.238C195.242 597.724 195.552 600.359 195.432 602.99C195.311 605.621 194.763 608.198 193.818 610.573C192.873 612.948 191.55 615.076 189.924 616.833C188.299 618.591 186.403 619.945 184.344 620.817C184.14 620.904 183.936 620.985 183.729 621.062Z" fill="#2F2E41"/>
<path opacity="0.2" d="M146.926 580.303C146.926 580.303 161.257 599.692 164.123 610.771Z" fill="black"/>
<path d="M91.342 488.802L86.5455 502.943C86.0602 504.373 85.8391 505.915 85.8976 507.459C85.9562 509.004 86.2929 510.515 86.8845 511.886C87.476 513.257 88.308 514.456 89.3226 515.399C90.3371 516.342 91.5097 517.006 92.7586 517.346V517.346C94.1027 517.711 95.4991 517.69 96.8352 517.284C98.1714 516.879 99.4101 516.1 100.452 515.01C101.493 513.921 102.308 512.552 102.832 511.012C103.355 509.473 103.572 507.807 103.465 506.147L102.432 490.127L109.143 440.283L132.231 428.699L120.607 410.016L94.9219 428.292L91.342 488.802Z" fill="#FFB8B8"/>
<path d="M205.972 490.978C189.5 524.397 156.664 537.338 128.541 511.169C133.488 491.534 149.461 437.269 139.142 435.192C117.233 446.29 117.201 420.233 113.103 407.192L162.977 385.034L189.92 394.036L195.443 396.403C199.038 397.944 202.155 400.777 204.377 404.522C206.598 408.266 207.817 412.743 207.869 417.35C196.551 437.1 188.173 458.169 205.972 490.978Z" fill="#6C63FF"/>
<path d="M212.277 463.973L192.5 444.238L199.092 398.191L226.036 432.813L212.277 463.973Z" fill="#6C63FF"/>
<path d="M540.448 147.639H537.622V54.1229C537.622 39.7686 532.901 26.0022 524.498 15.8522C516.095 5.70222 504.698 0 492.814 0H328.789C316.905 0 305.508 5.70222 297.105 15.8522C288.702 26.0022 283.981 39.7686 283.981 54.1229V567.158C283.981 581.513 288.702 595.279 297.105 605.429C305.508 615.579 316.905 621.281 328.789 621.281H492.813C504.697 621.281 516.094 615.579 524.497 605.429C532.9 595.279 537.621 581.513 537.621 567.158V214.205H540.448L540.448 147.639Z" fill="#3F3D56"/>
<path d="M494.622 14.0796H473.211C474.196 16.9957 474.573 20.1596 474.307 23.2927C474.041 26.4258 473.141 29.4318 471.687 32.0459C470.233 34.66 468.268 36.8019 465.967 38.2828C463.666 39.7638 461.099 40.5384 458.491 40.5384H364.524C361.916 40.5381 359.349 39.7634 357.049 38.2825C354.748 36.8016 352.784 34.66 351.33 32.0463C349.875 29.4325 348.976 26.427 348.71 23.2943C348.444 20.1616 348.82 16.998 349.804 14.0822H329.803C320.929 14.0822 312.417 18.3407 306.142 25.9208C299.866 33.501 296.341 43.7819 296.341 54.5019V566.782C296.341 577.502 299.866 587.783 306.142 595.363C312.417 602.943 320.929 607.202 329.803 607.202H494.616C503.49 607.202 512.002 602.943 518.277 595.363C524.553 587.783 528.078 577.502 528.078 566.782V54.4993C528.078 43.7793 524.553 33.4984 518.277 25.9183C512.002 18.3381 503.49 14.0796 494.616 14.0796L494.622 14.0796Z" fill="white"/>
<path d="M412.496 578.574C422.644 578.574 430.871 568.636 430.871 556.378C430.871 544.12 422.644 534.183 412.496 534.183C402.347 534.183 394.121 544.12 394.121 556.378C394.121 568.636 402.347 578.574 412.496 578.574Z" fill="#E6E6E6"/>
<path d="M337.951 351.114C336.214 351.114 334.801 353.063 334.801 355.458C334.801 357.852 336.214 359.801 337.951 359.801H486.468C488.205 359.801 489.618 357.852 489.618 355.458C489.618 353.063 488.205 351.114 486.468 351.114H337.951Z" fill="#E6E6E6"/>
<path d="M337.951 453.555C336.214 453.555 334.801 455.504 334.801 457.899C334.801 460.293 336.214 462.242 337.951 462.242H486.468C488.205 462.242 489.618 460.293 489.618 457.899C489.618 455.504 488.205 453.555 486.468 453.555H337.951Z" fill="#E6E6E6"/>
<path d="M337.951 377.175C336.214 377.175 334.801 379.124 334.801 381.518C334.801 383.913 336.214 385.862 337.951 385.862H401.858C403.595 385.862 405.009 383.913 405.009 381.518C405.009 379.123 403.595 377.175 401.858 377.175H337.951Z" fill="#E6E6E6"/>
<path d="M337.951 402.015C336.214 402.015 334.801 403.964 334.801 406.359C334.801 408.753 336.214 410.702 337.951 410.702H486.468C488.205 410.702 489.618 408.753 489.618 406.359C489.618 403.964 488.205 402.015 486.468 402.015H337.951Z" fill="#E6E6E6"/>
<path d="M337.951 428.076C336.214 428.076 334.801 430.024 334.801 432.419C334.801 434.814 336.214 436.762 337.951 436.762H401.858C403.595 436.762 405.009 434.814 405.009 432.419C405.009 430.024 403.595 428.076 401.858 428.076H337.951Z" fill="#E6E6E6"/>
<path d="M365.988 153.343H458.44C459.461 153.344 460.44 153.835 461.162 154.707C461.884 155.58 462.291 156.762 462.292 157.996V274.298C462.291 275.531 461.884 276.714 461.162 277.586C460.44 278.459 459.461 278.949 458.44 278.951H365.988C364.967 278.949 363.988 278.459 363.266 277.586C362.544 276.714 362.137 275.531 362.136 274.298V157.996C362.137 156.762 362.544 155.58 363.266 154.707C363.988 153.835 364.967 153.344 365.988 153.343V153.343Z" fill="#6C63FF"/>
<path d="M438.74 254.967C439.084 254.968 439.425 254.887 439.742 254.729C440.06 254.571 440.349 254.338 440.593 254.045C440.836 253.752 441.029 253.403 441.161 253.02C441.293 252.636 441.361 252.225 441.361 251.81C441.361 251.395 441.293 250.983 441.162 250.6C441.03 250.216 440.838 249.867 440.594 249.574C440.351 249.28 440.062 249.048 439.745 248.889C439.427 248.73 439.087 248.649 438.743 248.649H385.688C385.344 248.648 385.004 248.729 384.686 248.888C384.368 249.046 384.079 249.278 383.836 249.572C383.592 249.865 383.399 250.213 383.267 250.597C383.136 250.98 383.068 251.391 383.067 251.807C383.067 252.222 383.135 252.633 383.266 253.017C383.398 253.401 383.591 253.749 383.834 254.043C384.077 254.336 384.366 254.569 384.684 254.728C385.001 254.886 385.342 254.968 385.685 254.967H438.74Z" fill="white"/>
<path d="M438.74 236.355C439.434 236.355 440.099 236.022 440.59 235.43C441.08 234.838 441.356 234.034 441.356 233.196C441.356 232.358 441.08 231.555 440.59 230.963C440.099 230.37 439.434 230.037 438.74 230.037H385.688C384.994 230.037 384.329 230.369 383.838 230.961C383.348 231.554 383.072 232.357 383.072 233.195C383.071 234.033 383.346 234.836 383.837 235.429C384.327 236.022 384.992 236.355 385.685 236.355H438.74Z" fill="white"/>
<path d="M412.214 177.326C415.47 177.326 418.653 178.493 421.36 180.678C424.067 182.862 426.177 185.968 427.423 189.601C428.669 193.235 428.995 197.233 428.36 201.09C427.724 204.947 426.157 208.49 423.854 211.271C421.552 214.052 418.619 215.946 415.426 216.713C412.232 217.48 408.922 217.086 405.914 215.581C402.906 214.076 400.335 211.528 398.527 208.258C396.718 204.988 395.752 201.143 395.752 197.211V197.211C395.757 191.939 397.493 186.885 400.579 183.157C403.665 179.429 407.85 177.332 412.214 177.326V177.326Z" fill="white"/>
<path d="M202.173 379.006H153.302C152.297 379.004 151.333 378.521 150.622 377.663C149.911 376.804 149.512 375.64 149.51 374.426V348.981C149.51 339.938 152.484 331.266 157.778 324.872C163.072 318.477 170.251 314.885 177.738 314.885C185.224 314.885 192.404 318.477 197.697 324.872C202.991 331.266 205.965 339.938 205.965 348.981V374.426C205.964 375.64 205.564 376.804 204.853 377.663C204.142 378.521 203.179 379.004 202.173 379.006V379.006Z" fill="#2F2E41"/>
<path d="M201.293 364.466C206.775 352.352 203.089 337.163 193.06 330.541C183.031 323.919 170.457 328.371 164.975 340.485C159.492 352.599 163.178 367.787 173.207 374.41C183.236 381.032 195.81 376.58 201.293 364.466Z" fill="#FFB6B6"/>
<path d="M212.643 351.525H182.76L182.453 346.343L180.921 351.525H176.32L175.712 341.254L172.676 351.525H163.772V351.017C163.779 343.866 166.133 337.01 170.319 331.954C174.505 326.898 180.181 324.053 186.101 324.045H190.314C196.234 324.053 201.91 326.898 206.096 331.954C210.282 337.01 212.636 343.866 212.643 351.017V351.525Z" fill="#2F2E41"/>
<path d="M182.515 383.755C182.29 383.755 182.065 383.731 181.844 383.684L159.962 379.02V335.337H184.05L183.453 336.177C175.156 347.866 181.407 366.819 185.872 377.076C186.201 377.827 186.348 378.676 186.295 379.523C186.243 380.371 185.993 381.183 185.575 381.867C185.225 382.452 184.765 382.928 184.233 383.256C183.701 383.584 183.112 383.755 182.515 383.755V383.755Z" fill="#2F2E41"/>
<path d="M255.369 599.428L282.366 599.427H282.367C286.93 599.427 291.306 601.617 294.533 605.514C297.759 609.411 299.572 614.697 299.572 620.208V620.884L255.37 620.886L255.369 599.428Z" fill="#2F2E41"/>
<path d="M628.293 623H0.706742C0.519302 623 0.339539 622.91 0.206999 622.75C0.0744595 622.59 0 622.373 0 622.146C0 621.92 0.0744595 621.703 0.206999 621.543C0.339539 621.383 0.519302 621.293 0.706742 621.293H628.293C628.481 621.293 628.66 621.383 628.793 621.543C628.926 621.703 629 621.92 629 622.146C629 622.373 628.926 622.59 628.793 622.75C628.66 622.91 628.481 623 628.293 623Z" fill="#CACACA"/>
</g>
<defs>
<clipPath id="clip0_1_54">
<rect width="629" height="623" fill="white"/>
</clipPath>
</defs>
</svg>
