<svg width="56" height="56" viewBox="0 0 56 56" fill="none" xmlns="http://www.w3.org/2000/svg">
<path d="M34.244 19.9186L35.5215 19.9265L34.7704 24.9296C34.7346 25.1675 34.8546 25.4016 35.0687 25.5112C35.1496 25.5525 35.2371 25.5727 35.3238 25.5727C35.4668 25.5727 35.6079 25.518 35.7151 25.4136L43.3462 17.9698C43.5092 17.8109 43.5598 17.5695 43.4742 17.3587C43.3886 17.1479 43.1841 17.0095 42.9566 17.0089L40.2219 17.0016L42.0947 12.5935C42.1682 12.4204 42.1499 12.2221 42.0463 12.0655C41.9426 11.9088 41.7671 11.8145 41.5792 11.8145H35.0465C34.7619 11.8145 34.5226 12.028 34.4901 12.3107L33.6911 19.2949C33.6731 19.4529 33.7231 19.6112 33.8287 19.7302C33.9339 19.8491 34.0851 19.9175 34.244 19.9186ZM35.5461 12.9345H40.733L38.861 17.3404C38.7877 17.5132 38.8058 17.7111 38.9091 17.8678C39.0122 18.0245 39.1872 18.1188 39.3751 18.1194L41.5828 18.1254L36.1253 23.4489L36.7249 19.4535C36.7492 19.293 36.7022 19.1297 36.5967 19.0061C36.4911 18.8828 36.3372 18.8114 36.1748 18.8104L34.8748 18.8024L35.5461 12.9345Z" fill="white"/>
<path d="M5.60156 34.4154C5.60156 43.2291 12.843 50.3994 21.7437 50.3994C25.0638 50.3994 28.2362 49.4156 30.9448 47.5505C32.2363 48.3651 36.9039 50.8823 40.3232 47.2043C40.4493 47.0687 40.5001 46.8795 40.4591 46.6987C40.4181 46.5183 40.2901 46.3695 40.1179 46.302C40.0695 46.2828 35.3357 44.3453 36.0819 41.845C36.9482 40.0692 37.6222 37.8022 37.7997 36.0732C37.8164 35.9513 38.1755 33.2193 37.5598 30.5007C40.975 30.5801 44.3138 29.2774 46.7968 26.7755C49.1509 24.4029 50.4308 21.2647 50.401 17.9389C50.3712 14.6119 49.0347 11.4961 46.6374 9.16534C41.6926 4.35804 33.7191 4.42831 28.8629 9.32339C26.2455 11.9613 25.0529 15.4244 25.2674 18.8215C24.1156 18.5675 22.934 18.431 21.7437 18.431C12.843 18.431 5.60156 25.6017 5.60156 34.4154ZM29.658 10.1123C34.0845 5.65167 41.3508 5.58769 45.8565 9.96815C48.0377 12.0889 49.2539 14.9231 49.2813 17.9487C49.3084 20.9735 48.1435 23.8282 46.0017 25.9864C42.9452 29.0669 38.4641 30.1571 34.3087 28.8329C34.1047 28.7678 33.8788 28.8255 33.7312 28.9822C33.7134 29.001 32.1255 30.6343 29.2599 29.7587C29.7428 29.3863 30.244 28.8523 30.4078 28.166C30.5183 27.7019 30.5104 26.9798 29.8445 26.1748C29.8314 26.1587 29.8172 26.1436 29.8024 26.1291C29.7229 26.052 29.6447 25.9735 29.5678 25.8945C25.2494 21.4479 25.2891 14.5154 29.658 10.1123ZM28.7642 26.6746C28.8413 26.7542 28.92 26.8332 28.9999 26.9112C29.2881 27.2675 29.3923 27.5926 29.3187 27.9043C29.1525 28.6078 28.1489 29.1889 27.7773 29.353C27.5764 29.4407 27.4451 29.6379 27.4416 29.8575C27.4383 30.0767 27.5632 30.278 27.7615 30.3721C28.9602 30.9411 30.0157 31.1467 30.9153 31.1467C32.6344 31.1464 33.7848 30.3959 34.2772 29.9942C34.9744 30.1974 35.679 30.3321 36.3841 30.4144C37.0657 33.0312 36.6938 35.8938 36.6879 35.9403C36.5191 37.5793 35.879 39.7187 35.0573 41.3908C35.045 41.4154 35.0349 41.4411 35.0264 41.4673C34.14 44.2433 37.3622 46.2164 38.9194 46.988C35.6726 49.6073 31.4567 46.5604 31.2683 46.4212C31.072 46.2763 30.8043 46.2746 30.6069 46.4179C28.0223 48.2899 24.9574 49.2794 21.7437 49.2794C13.4604 49.2794 6.72156 42.6114 6.72156 34.4154C6.72156 26.2191 13.4604 19.551 21.7437 19.551C22.9814 19.551 24.2099 19.7031 25.3988 19.9971C25.7895 22.4211 26.9032 24.7584 28.7642 26.6746Z" fill="white"/>
<path d="M15.6133 32.3159C15.6133 32.6251 15.864 32.8759 16.1733 32.8759H26.2533C26.5625 32.8759 26.8133 32.6251 26.8133 32.3159C26.8133 32.0066 26.5625 31.7559 26.2533 31.7559H16.1733C15.864 31.7559 15.6133 32.0066 15.6133 32.3159Z" fill="white"/>
<path d="M26.2533 37.1123H16.1733C15.864 37.1123 15.6133 37.363 15.6133 37.6723C15.6133 37.9816 15.864 38.2323 16.1733 38.2323H26.2533C26.5625 38.2323 26.8133 37.9816 26.8133 37.6723C26.8133 37.363 26.5625 37.1123 26.2533 37.1123Z" fill="white"/>
</svg>
