<svg width="45" height="47" viewBox="0 0 45 47" fill="none" xmlns="http://www.w3.org/2000/svg">
<path d="M26.3206 17.0901L22.8606 21.3901L19.3906 17.0801" stroke="white" stroke-linecap="round" stroke-linejoin="round"/>
<path d="M25.5391 3.26953C29.0726 3.729 32.428 5.09151 35.2815 7.22558C38.135 9.35965 40.3902 12.1932 41.8295 15.4528C43.2689 18.7124 43.8437 22.288 43.4985 25.8345C43.1534 29.381 41.8999 32.7786 39.8591 35.6995" stroke="white" stroke-linecap="round" stroke-linejoin="round"/>
<path d="M5.56995 35.2402C3.62552 32.3107 2.45856 28.9346 2.17892 25.4297C1.89928 21.9248 2.51617 18.4063 3.9715 15.2056C5.42684 12.0049 7.67275 9.22711 10.4978 7.13385C13.3229 5.04059 16.6342 3.70067 20.1199 3.24023" stroke="white" stroke-linecap="round" stroke-linejoin="round"/>
<path d="M35.3805 40.3398C31.7996 43.0481 27.4368 44.5219 22.9471 44.5399C18.4574 44.5579 14.083 43.1193 10.4805 40.4398" stroke="white" stroke-linecap="round" stroke-linejoin="round"/>
<path d="M28.5405 33.3696L27.9805 28.1396L33.2105 28.7096" stroke="white" stroke-linecap="round" stroke-linejoin="round"/>
<path d="M43.86 44.9001L37.63 38.2901L28.5 28.6201" stroke="white" stroke-linecap="round" stroke-linejoin="round"/>
<path d="M22.8594 21.05V1" stroke="white" stroke-linecap="round" stroke-linejoin="round"/>
<path d="M11.5391 29.0996L17.1691 28.1396L17.6091 33.3097" stroke="white" stroke-linecap="round" stroke-linejoin="round"/>
<path d="M17.03 28.6201L1 45.6201" stroke="white" stroke-linecap="round" stroke-linejoin="round"/>
<path d="M24.6719 9.9502C27.0628 10.2581 29.3336 11.178 31.2646 12.6211C33.1956 14.0641 34.7213 15.9813 35.6939 18.187C36.6665 20.3927 37.0531 22.8122 36.8162 25.2112C36.5793 27.6101 35.7271 29.9073 34.3419 31.8802" stroke="white" stroke-linecap="round" stroke-linejoin="round"/>
<path d="M11.1715 31.57C9.86033 29.5902 9.07426 27.3094 8.88724 24.9421C8.70022 22.5749 9.11841 20.199 10.1025 18.0379C11.0865 15.8767 12.6041 14.0014 14.5125 12.5883C16.4209 11.1752 18.6573 10.2707 21.0115 9.95996" stroke="white" stroke-linecap="round" stroke-linejoin="round"/>
<path d="M31.3183 35.0098C28.9009 36.8459 25.9523 37.8466 22.9166 37.8611C19.881 37.8755 16.923 36.9029 14.4883 35.0898" stroke="white" stroke-linecap="round" stroke-linejoin="round"/>
</svg>
