<svg width="41" height="50" viewBox="0 0 41 50" fill="none" xmlns="http://www.w3.org/2000/svg">
<path d="M20.2048 1C22.3239 4.13855 25.2493 6.64829 28.6737 8.26543C32.098 9.88257 35.8947 10.5474 39.6648 10.19V19.26C39.7396 27.2266 36.8692 34.9402 31.6048 40.92C28.4671 44.386 24.6245 47.1409 20.3348 49L18.5748 48.16C13.2127 45.495 8.71596 41.3645 5.60615 36.2476C2.49634 31.1306 0.900862 25.2369 1.00477 19.25V10.25C4.74616 10.6222 8.51774 9.95572 11.905 8.32384C15.2922 6.69196 18.1641 4.15784 20.2048 1Z" stroke="black" stroke-linecap="round" stroke-linejoin="round"/>
<path d="M14.1641 25.8404L17.7141 29.3904L26.5041 20.6104" stroke="black" stroke-linecap="round" stroke-linejoin="round"/>
<path d="M29.7178 14.2803C31.1345 14.5479 32.5802 14.6286 34.0178 14.5203V20.9403C34.0802 26.573 32.0571 32.0297 28.3378 36.2603C26.1168 38.7287 23.3876 40.6869 20.3378 42.0003L19.0878 41.4103C17.6391 40.6795 16.2716 39.7979 15.0078 38.7803" stroke="black" stroke-linecap="round" stroke-linejoin="round"/>
<path d="M10.4466 33.79C7.95061 29.9672 6.63271 25.4954 6.65657 20.93V14.53C9.30315 14.7958 11.9718 14.3269 14.3693 13.1749C16.7668 12.0229 18.8003 10.2324 20.2466 8C21.4295 9.7886 23.0022 11.2861 24.8466 12.38" stroke="black" stroke-linecap="round" stroke-linejoin="round"/>
</svg>
